<svg xmlns="http://www.w3.org/2000/svg" viewBox="0 0 351.12 276.0" width="351.12" height="276.0" role="img" aria-label="Fiance, assinatura vertical">
<title>Fiance, assinatura vertical</title>
<g transform="translate(100.56 0) scale(1.5)"><path d="M6 6L76 6L76 19L19 19L19 41L56 41L56 54L19 54L19 79L6 79Z" fill="#295D7C"/><rect x="83" y="6" width="13" height="13" rx="3" fill="#295D7C"/><rect x="0" y="87" width="100" height="8" rx="4" fill="#525B6C"/></g>
<g fill="#1F2933" transform="translate(0.00 192) scale(0.84)"><path d="M0 0L62 0L62 13L13 13L13 49L50 49L50 62L13 62L13 100L0 100Z" transform="translate(0 0)"/><path d="M0 0L13 0L13 100L0 100Z" transform="translate(75 0)"/><path d="M29 0L45 0L74 100L59.5 100L37 22.4L14.5 100L0 100Z M29.29 49L44.71 49L48.48 62L25.52 62Z" transform="translate(101 0)"/><path d="M0 0L13 0L59 76L59 0L72 0L72 100L59 100L13 24L13 100L0 100Z" transform="translate(188 0)"/><path d="M64.4 22.8A35 50 0 1 0 64.4 77.2L53.4 70.2A22 37 0 1 1 53.4 29.8Z" transform="translate(273 0)"/><path d="M0 0L62 0L62 13L13 13L13 49L48 49L48 62L13 62L13 87L62 87L62 100L0 100Z" transform="translate(356 0)"/></g>
</svg>
